PathFileType	4	(X/Y/Z)	c:/Users/goper/Files/vsCode/490R/osim_files/A06/A06_Slow_03.trc
DataRate	CameraRate	NumFrames	NumMarkers	Units                	OrigDataRate	OrigDataStartFrame	OrigNumFrames
120.00	120.00	9	36	mm	120.0	761	1216
                Frame#	Time	LPSIS			LASIS			LTH1			LTH2			LTH3			LTH4			LLFE			LMFE			LSH1			LSH2			LSH3			LSH4			LLMAL			LMMAL			LCAL			LMTP5			LTOE			LMTP1			RPSIS			RASIS			RTH1			RTH2			RTH3			RTH4			RLFE			RMFE			RSH1			RSH2			RSH3			RSH4			RLMAL			RMMAL			RCAL			RMTP1			RTOE			RMTP5		
		X1	Y1	Z1	X2	Y2	Z2	X3	Y3	Z3	X4	Y4	Z4	X5	Y5	Z5	X6	Y6	Z6	X7	Y7	Z7	X8	Y8	Z8	X9	Y9	Z9	X10	Y10	Z10	X11	Y11	Z11	X12	Y12	Z12	X13	Y13	Z13	X14	Y14	Z14	X15	Y15	Z15	X16	Y16	Z16	X17	Y17	Z17	X18	Y18	Z18	X19	Y19	Z19	X20	Y20	Z20	X21	Y21	Z21	X22	Y22	Z22	X23	Y23	Z23	X24	Y24	Z24	X25	Y25	Z25	X26	Y26	Z26	X27	Y27	Z27	X28	Y28	Z28	X29	Y29	Z29	X30	Y30	Z30	X31	Y31	Z31	X32	Y32	Z32	X33	Y33	Z33	X34	Y34	Z34	X35	Y35	Z35	X36	Y36	Z36

761	6.33333	-1245.97632	1007.09357	364.30167	-1438.07629	946.07361	418.20181	-1362.25574	589.11139	448.94415	-1372.33313	547.95624	443.47409	-1426.22095	594.80499	437.02237	-1424.93665	552.27124	433.08914	-1399.72888	476.98590	424.92172	-1403.61353	471.41949	317.59241	-1336.99451	382.07120	435.93411	-1342.69128	336.43018	440.17181	-1399.26624	382.76175	430.15353	-1397.02075	339.91293	433.28461	-1344.47363	83.54403	390.88287	-1365.74512	103.64573	308.09421	-1282.13733	77.98035	335.89307	-1461.64185	41.09947	404.98477	-1501.15271	65.87090	352.44650	-1477.83777	58.19331	312.74124	-1236.40161	1026.89258	234.82982	-1406.15564	999.76788	167.98611	-1434.99548	620.26935	136.92575	-1442.37195	576.71710	134.00832	-1374.60657	603.86426	126.95852	-1390.89551	563.84778	127.81391	-1441.22522	460.63501	156.94739	-1439.55725	461.46082	245.87355	-1333.61060	345.17969	166.78307	-1307.23926	305.52914	168.16750	-1381.32251	308.56216	180.07838	-1348.44983	272.95200	175.56181	-1226.94617	192.92201	156.29094	-1237.04358	189.16924	242.01022	-1166.98181	206.79759	203.40204	-1322.07129	77.79050	238.50441	-1342.51477	78.87450	198.58115	-1312.87244	80.81347	148.29379
762	6.34167	-1252.74097	1007.31104	364.82001	-1444.89038	946.34595	418.23279	-1365.54761	589.56763	448.75729	-1375.09009	548.27576	443.36908	-1429.45557	594.50543	436.85037	-1427.67004	551.98907	432.99765	-1401.43774	476.89398	424.82364	-1405.57605	471.01404	317.38452	-1338.23267	382.27716	435.71017	-1343.50037	336.76096	440.03680	-1400.28931	382.67337	430.07419	-1397.84497	339.84375	433.26733	-1344.50012	83.54808	390.89297	-1365.87976	103.71999	308.11804	-1282.13794	78.03111	335.89597	-1461.62195	41.01149	405.03644	-1501.10474	65.80458	352.52878	-1477.85547	58.19132	312.81885	-1242.87878	1027.28833	235.38672	-1412.22424	1000.18878	168.23196	-1444.64539	622.23248	136.91106	-1452.85107	578.77216	134.05530	-1384.89734	605.13501	127.27523	-1401.54016	565.23395	127.82332	-1453.27258	462.66379	156.79224	-1451.61255	463.42914	245.68979	-1351.11829	342.44833	167.28458	-1325.75012	302.17664	168.10617	-1400.00342	308.17795	180.00729	-1368.32629	271.40125	175.52547	-1250.07959	186.31165	156.31470	-1260.30347	183.03827	242.01198	-1189.68335	197.75867	203.48378	-1349.77380	75.08467	238.45052	-1370.25708	77.10143	198.52824	-1340.77319	77.58205	148.26634
763	6.35000	-1259.38562	1007.45996	365.25882	-1451.66382	946.58344	418.13943	-1368.86292	590.03339	448.54041	-1377.96594	548.63306	443.21570	-1432.74268	594.06604	436.65015	-1430.62451	551.63062	432.89554	-1403.26038	476.86703	424.70163	-1407.48853	470.76959	317.17783	-1339.34851	382.68628	435.53854	-1344.44812	336.99716	439.89203	-1401.68237	382.66461	430.14142	-1398.87073	339.82056	433.26846	-1344.60388	83.57045	390.92087	-1365.98730	104.35351	309.07733	-1281.61987	78.27239	336.01102	-1461.61438	40.92775	405.09415	-1501.09326	65.75383	352.57825	-1477.86255	58.17732	312.88293	-1249.31555	1027.54895	235.87492	-1418.22290	1000.47601	168.41823	-1454.24158	623.94489	136.89909	-1462.90503	580.51428	134.05714	-1394.34204	606.06915	126.99714	-1411.65308	566.47382	127.71326	-1464.76526	464.41669	156.54501	-1463.24109	465.10019	245.41269	-1367.76709	339.97043	167.15248	-1344.14832	298.53812	168.08722	-1417.67786	307.81406	179.63388	-1387.93005	269.60330	175.26982	-1273.66663	179.58727	156.33046	-1284.04382	176.73773	242.11041	-1212.70935	188.48534	203.53630	-1378.75195	72.98175	238.08551	-1398.39832	75.70084	198.36363	-1369.02869	74.97277	148.47116
764	6.35833	-1265.97253	1007.59595	365.65457	-1458.58765	946.77802	418.04117	-1372.26953	590.46405	448.30618	-1380.87476	548.88055	443.11011	-1436.08887	593.73230	436.59021	-1433.35791	551.29681	432.89941	-1405.18823	476.88434	424.73169	-1409.65259	470.62396	317.09274	-1340.71631	382.98676	435.35431	-1345.35803	337.36447	439.79166	-1402.93420	382.66452	430.14023	-1399.91492	339.84802	433.25275	-1344.64490	83.60571	390.92413	-1366.49304	104.24297	308.73770	-1281.65076	78.39708	336.00000	-1461.62720	40.87476	405.12149	-1501.11938	65.90980	352.80783	-1478.09619	58.38600	313.01111	-1255.85779	1027.70032	236.32153	-1425.16833	1000.97925	168.06306	-1463.61621	625.39362	136.79199	-1472.86389	582.00726	134.20192	-1403.60974	606.91437	126.86253	-1421.42273	567.43463	127.54486	-1475.53906	465.90616	156.18758	-1474.08069	466.47717	245.09093	-1384.26733	337.22144	166.99382	-1362.64783	294.76135	167.86975	-1436.30042	306.92944	179.45442	-1407.66089	267.64569	175.07758	-1297.61194	172.78433	156.57100	-1307.50159	169.99400	242.13187	-1236.49963	178.94917	203.84048	-1407.37012	70.97898	237.78995	-1426.67871	74.47234	198.00102	-1397.37952	72.51869	148.25575
765	6.36667	-1272.60083	1007.49408	366.06900	-1465.24646	946.85681	417.94177	-1375.67163	590.86310	448.14258	-1383.71606	549.22168	443.01550	-1439.44177	593.34906	436.57166	-1436.19641	550.84808	432.86328	-1406.75830	476.32483	424.71942	-1411.80554	470.44055	316.99304	-1341.95667	383.40167	435.16953	-1346.48877	337.67728	439.67651	-1404.25903	382.62192	430.12115	-1401.06616	339.87225	433.28156	-1344.70447	83.65903	390.93719	-1366.60535	104.34404	308.79004	-1281.62756	78.53648	335.99075	-1461.59375	40.80282	405.15515	-1501.58496	65.91821	352.42410	-1478.14319	58.34652	313.08917	-1262.37903	1027.74438	236.72864	-1431.59570	1001.21289	168.10399	-1472.42969	626.51947	136.60002	-1481.94678	583.20569	133.91789	-1412.58105	607.48492	126.75266	-1430.73901	568.23474	127.30427	-1485.82300	467.04834	155.75186	-1484.60974	467.56989	244.66699	-1400.63818	334.31030	166.73399	-1380.91602	290.89572	167.78032	-1454.06506	306.40427	179.12219	-1427.20142	265.83026	174.69633	-1321.62122	165.99234	156.52454	-1332.38220	164.16849	242.02304	-1260.24207	169.36403	203.92212	-1436.14990	69.38229	237.53786	-1455.49695	73.85376	197.68332	-1426.03650	70.40793	148.05022
766	6.37500	-1279.19055	1007.43774	366.44839	-1472.24683	946.95282	417.76797	-1379.26379	591.23206	447.97101	-1386.79102	549.40967	442.94397	-1443.13379	592.93524	436.52261	-1439.37329	550.50171	432.92499	-1409.30005	476.69766	424.68979	-1414.07214	470.17477	316.89001	-1343.58154	383.69852	435.09244	-1347.65112	338.01328	439.57477	-1405.92493	382.62143	430.18033	-1402.38623	339.94601	433.35065	-1344.84839	83.70644	390.96387	-1366.54688	104.26015	308.82898	-1281.74036	78.68611	336.00763	-1461.63684	40.75918	405.17966	-1501.66919	65.85614	352.47675	-1478.18640	58.31340	313.17166	-1268.98401	1027.71802	237.06612	-1438.17529	1001.35498	168.10973	-1480.94153	627.26947	136.45743	-1490.77283	584.01776	133.62567	-1421.15247	607.88281	126.57568	-1439.61670	568.77289	127.09721	-1495.49207	467.85281	155.23137	-1494.36304	468.30109	244.18196	-1416.86682	331.14908	166.45575	-1399.35266	286.84088	167.59039	-1471.42749	305.94608	178.84711	-1446.75012	264.03262	174.44562	-1346.03320	159.19885	156.47107	-1357.45020	157.85385	241.97870	-1284.53003	159.76527	203.97192	-1465.42078	68.24677	237.19987	-1484.17712	73.26594	197.13379	-1454.88000	68.76541	147.68532
767	6.38333	-1285.80273	1006.94250	366.88181	-1479.01746	946.89728	417.75137	-1382.88147	591.51331	447.83401	-1389.97986	549.60339	443.03470	-1446.72864	592.37274	436.52170	-1442.50940	550.05347	433.02689	-1411.16809	476.10837	424.72812	-1416.47900	469.84445	316.81650	-1345.23352	383.98022	434.99023	-1349.11804	338.27252	439.52573	-1407.54785	382.53513	430.20068	-1403.82776	339.87527	433.44162	-1344.96118	83.74654	390.99536	-1366.52380	104.48648	308.94904	-1281.97949	78.74311	336.08179	-1461.65845	40.66128	405.24124	-1501.71326	65.70030	352.54898	-1478.28162	58.25811	313.24338	-1275.63391	1027.52991	237.40549	-1444.70251	1001.39215	168.06165	-1488.97839	627.71466	136.20468	-1498.93835	584.43567	133.37160	-1429.41174	608.01166	126.44756	-1448.03674	569.00024	126.85043	-1504.54431	468.29721	154.71307	-1503.69421	468.69012	243.69202	-1432.94495	327.90366	166.15625	-1417.77881	282.73608	167.40021	-1488.79773	305.15787	178.29312	-1466.11841	262.24255	174.00812	-1370.68225	152.47810	156.22418	-1382.40308	151.83839	241.82626	-1309.58264	149.89607	204.13849	-1494.83838	67.92545	237.05342	-1513.01135	73.65183	196.70778	-1483.91064	67.72791	147.24057
768	6.39167	-1292.69373	1006.47675	367.10251	-1485.67358	946.69745	417.70688	-1386.69421	591.69250	447.86932	-1393.24146	549.66193	442.98743	-1450.35327	591.75458	436.55545	-1445.69080	549.43848	433.09427	-1413.53992	475.90359	424.83401	-1419.00220	469.53827	316.73184	-1346.99023	384.23248	434.93558	-1350.45117	338.49811	439.50467	-1409.25940	382.28223	430.37796	-1405.16687	339.61841	433.52438	-1345.01453	83.69157	391.02869	-1366.67529	104.56683	308.97382	-1282.01855	78.83118	336.12900	-1461.63538	40.49356	405.29831	-1501.74402	65.50317	352.58646	-1479.20007	58.72423	312.88235	-1282.41333	1027.06567	237.67944	-1451.14307	1001.30511	168.06865	-1497.06140	628.06073	136.18930	-1506.57739	584.44836	133.06369	-1437.31311	607.94214	126.28443	-1456.17761	569.01642	126.58524	-1513.33948	468.39865	154.07420	-1512.52747	468.80341	243.10570	-1448.73230	324.35120	165.67184	-1436.06006	278.60873	167.15161	-1505.77063	304.57571	177.83942	-1485.35889	260.84753	173.72400	-1395.74036	146.14206	156.40288	-1408.56311	146.43944	241.70792	-1334.82092	140.51837	204.27481	-1524.01025	67.94441	236.53415	-1542.03992	74.87965	196.18085	-1512.79016	67.38283	146.75951
769	6.40000	-1299.39600	1006.01318	367.26715	-1492.55188	946.47192	417.68018	-1390.63965	591.82538	447.87952	-1396.92603	549.65570	443.05042	-1454.34192	591.13733	436.57132	-1449.22412	548.89685	433.07645	-1416.66919	476.09177	424.80359	-1421.61719	469.20035	316.64124	-1348.95581	384.50110	434.86566	-1352.18640	338.67172	439.45203	-1411.22095	382.14709	430.40833	-1406.88879	339.52451	433.69189	-1345.20020	83.71085	391.02719	-1366.91077	104.58006	308.98105	-1282.19922	78.91894	336.15237	-1461.73181	40.37932	405.36401	-1501.75208	65.16092	352.56107	-1479.29712	58.60301	312.93765	-1289.25537	1026.50232	237.89159	-1457.83643	1001.10382	168.03700	-1504.69470	627.91528	135.83855	-1515.24829	584.63647	132.65036	-1444.99182	607.59418	126.13971	-1463.89673	568.68610	126.31664	-1521.23291	468.05286	153.59238	-1520.94458	468.51035	242.57181	-1464.58252	320.97162	165.34247	-1454.22424	274.62903	166.81282	-1522.40039	304.10117	177.28818	-1504.34253	259.18680	173.16310	-1420.78638	140.25031	156.25032	-1433.10449	140.75528	241.21716	-1360.48206	131.29465	204.38582	-1553.19238	68.40098	236.59435	-1570.76294	77.08839	195.84309	-1541.90149	67.45766	146.25548
